# xmcd CD database file
#
# Track frame offsets:
#	150
#	33341
#	57401
#	94344
#	118246
#	167379
#	189209
#	225050
#
# Disc length: 3381 seconds
#
# Revision: 1
# Processed by: cddbd v1.5.1PL0 Copyright (c) Steve Scherf et al.
# Submitted via: CDex 1.51
#
DISCID=580d3308
DTITLE=Michal Prokop, Lubos Andrst, Jan Hruby - Unplugged
DYEAR=2005
DGENRE=Blues
TTITLE0=Rain
TTITLE1=Miss July
TTITLE2=Bitva o Karluv most
TTITLE3=Blues o spolykanych slovech
TTITLE4=I`m your hoochie coochie man
TTITLE5=Ztracena myslenka
TTITLE6=Dobru noc ma mila
TTITLE7=Boom Boom
EXTD=YEAR: 2005
EXTT0=
EXTT1=
EXTT2=
EXTT3=
EXTT4=
EXTT5=
EXTT6=
EXTT7=
PLAYORDER=
